<?xml version="1.0" encoding="utf-8"?>
<!-- Generator: Adobe Illustrator 16.0.0, SVG Export Plug-In . SVG Version: 6.00 Build 0)  -->
<!DOCTYPE svg PUBLIC "-//W3C//DTD SVG 1.1//EN" "http://www.w3.org/Graphics/SVG/1.1/DTD/svg11.dtd">
<svg version="1.1" id="Layer_1" xmlns="http://www.w3.org/2000/svg" xmlns:xlink="http://www.w3.org/1999/xlink" x="0px" y="0px"
	 width="108.3px" height="115px" viewBox="0 0 108.3 115" style="enable-background:new 0 0 108.3 115;" xml:space="preserve">
<style type="text/css">
<![CDATA[
	.st0{fill:none;stroke:#000000;stroke-width:2;stroke-linecap:round;stroke-miterlimit:10;}
]]>
</style>
<path class="st0" d="M5.6,83.1C4.3,84,2.1,87.2,3,87.9c3.5,2.8,15.1-25.8,18.5-38.6C24.2,38.5,33.1,2.8,24,2.1
	c-9.1,3.1-6.8,38.5-8.1,53.4c-2,18.9-4.7,37.8-8.1,56.8c4.7-12.8,9.4-46.6,18.9-45.9c5.3,1.4-10.8,43.9,0,41.9
	c8.1-2,14.2-33.8,10.8-35.1c-6.9-0.3-12.5,40,2,29.1c9.7-7.3,14.9-35.1,16.9-47.3c2.7-12.8,7.8-44.8,2-44.6C50,9.8,46,75.8,46,75.8
	c-0.7,9.5-3.3,25.8,2.3,33.1c7.7,9.9,16.9-24.3,18.2-31.1c3.4-13.5,16.1-61.5,8.8-61.5c-8.5-0.4-14,57.9-14.2,79
	c-0.2,30.3,12.2-14.2,20.3-15.5c16.9-2.7-7.4,40.5-9.5,16.2c0-2.7,2.7-10.2,4.7-11.5c5.1-3.2,2,1.4,6.8,1.4
	c8.8,0,17.2-4.2,20.9-12.9"/>
</svg>
